<?xml version="1.0" encoding="UTF-8"?>
<svg width="25px" height="16px" viewBox="0 0 25 16" version="1.1" xmlns="http://www.w3.org/2000/svg" xmlns:xlink="http://www.w3.org/1999/xlink">
    <title>􀋮</title>
    <g id="页面-1" stroke="none" stroke-width="1" fill="none" fill-rule="evenodd" fill-opacity="0.5">
        <g id="词汇界面搜索1备份-2" transform="translate(-340.000000, -225.000000)" fill="#000000" fill-rule="nonzero">
            <g id="􀋮" transform="translate(340.700684, 225.042969)">
                <path d="M12.0146484,15.2578125 C13.2275391,15.2578125 14.3671875,15.1142578 15.4335938,14.8271484 C16.5,14.5400391 17.4799805,14.1577148 18.3735352,13.6801758 C19.2670898,13.2026367 20.0625,12.6782227 20.7597656,12.1069336 C21.4570312,11.5356445 22.050293,10.9628906 22.5395508,10.3886719 C23.0288086,9.81445312 23.4023438,9.28417969 23.6601562,8.79785156 C23.9179688,8.31152344 24.046875,7.91894531 24.046875,7.62011719 C24.046875,7.32714844 23.9179688,6.9375 23.6601562,6.45117188 C23.4023438,5.96484375 23.0288086,5.43457031 22.5395508,4.86035156 C22.050293,4.28613281 21.4555664,3.71337891 20.7553711,3.14208984 C20.0551758,2.57080078 19.2583008,2.04785156 18.3647461,1.57324219 C17.4711914,1.09863281 16.4926758,0.717773438 15.4291992,0.430664062 C14.3657227,0.143554688 13.2275391,0 12.0146484,0 C10.8193359,0 9.69287109,0.143554688 8.63525391,0.430664062 C7.57763672,0.717773438 6.60351562,1.09863281 5.71289062,1.57324219 C4.82226562,2.04785156 4.02392578,2.57080078 3.31787109,3.14208984 C2.61181641,3.71337891 2.01123047,4.28613281 1.51611328,4.86035156 C1.02099609,5.43457031 0.64453125,5.96484375 0.38671875,6.45117188 C0.12890625,6.9375 0,7.32714844 0,7.62011719 C0,7.91894531 0.12890625,8.31152344 0.38671875,8.79785156 C0.64453125,9.28417969 1.02099609,9.81445312 1.51611328,10.3886719 C2.01123047,10.9628906 2.61181641,11.5356445 3.31787109,12.1069336 C4.02392578,12.6782227 4.82226562,13.2026367 5.71289062,13.6801758 C6.60351562,14.1577148 7.57763672,14.5400391 8.63525391,14.8271484 C9.69287109,15.1142578 10.8193359,15.2578125 12.0146484,15.2578125 Z M12.0234375,12.2695312 C11.3789062,12.2695312 10.7739258,12.1479492 10.2084961,11.9047852 C9.64306641,11.6616211 9.14648438,11.324707 8.71875,10.894043 C8.29101562,10.4633789 7.95556641,9.96972656 7.71240234,9.41308594 C7.46923828,8.85644531 7.34765625,8.26171875 7.34765625,7.62890625 C7.34179687,6.97851562 7.46044922,6.37207031 7.70361328,5.80957031 C7.94677734,5.24707031 8.28222656,4.75341797 8.70996094,4.32861328 C9.13769531,3.90380859 9.63574219,3.57275391 10.2041016,3.33544922 C10.7724609,3.09814453 11.3789062,2.97949219 12.0234375,2.97949219 C12.6679688,2.97949219 13.2729492,3.09814453 13.8383789,3.33544922 C14.4038086,3.57275391 14.9003906,3.90527344 15.328125,4.33300781 C15.7558594,4.76074219 16.0913086,5.25439453 16.3344727,5.81396484 C16.5776367,6.37353516 16.6992188,6.97851562 16.6992188,7.62890625 C16.6992188,8.26171875 16.5776367,8.85644531 16.3344727,9.41308594 C16.0913086,9.96972656 15.7558594,10.4633789 15.328125,10.894043 C14.9003906,11.324707 14.4038086,11.6616211 13.8383789,11.9047852 C13.2729492,12.1479492 12.6679688,12.2695312 12.0234375,12.2695312 Z M12.0146484,9.45703125 C12.5244141,9.45703125 12.9594727,9.27832031 13.3198242,8.92089844 C13.6801758,8.56347656 13.8603516,8.13574219 13.8603516,7.63769531 C13.8603516,7.13378906 13.6801758,6.70166016 13.3198242,6.34130859 C12.9594727,5.98095703 12.5244141,5.80078125 12.0146484,5.80078125 C11.5107422,5.80078125 11.0800781,5.98095703 10.7226562,6.34130859 C10.3652344,6.70166016 10.1865234,7.13378906 10.1865234,7.63769531 C10.1865234,8.13574219 10.3652344,8.56347656 10.7226562,8.92089844 C11.0800781,9.27832031 11.5107422,9.45703125 12.0146484,9.45703125 Z" id="形状"></path>
            </g>
        </g>
    </g>
</svg>