<?xml version="1.0" encoding="UTF-8"?>
<svg width="25px" height="17px" viewBox="0 0 25 17" version="1.1" xmlns="http://www.w3.org/2000/svg" xmlns:xlink="http://www.w3.org/1999/xlink">
    <title>􀋰</title>
    <g id="页面-1" stroke="none" stroke-width="1" fill="none" fill-rule="evenodd" fill-opacity="0.5">
        <g id="词汇界面搜索1备份" transform="translate(-341.000000, -223.000000)" fill="#000000" fill-rule="nonzero">
            <g id="􀋰" transform="translate(341.000000, 223.000000)">
                <path d="M12.0146484,16.0972541 C12.8056641,16.0972541 13.5629883,16.032801 14.2866211,15.9038948 C15.0102539,15.7749885 15.6972656,15.5992073 16.3476562,15.376551 L13.7373047,12.7574104 C13.4736328,12.8745979 13.1982422,12.9624885 12.9111328,13.0210823 C12.6240234,13.079676 12.328125,13.1089729 12.0234375,13.1089729 C11.3789062,13.1089729 10.7739258,12.9873909 10.2084961,12.7442268 C9.64306641,12.5010627 9.14648438,12.1641487 8.71875,11.7334846 C8.29101562,11.3028205 7.95556641,10.8091682 7.71240234,10.2525276 C7.46923828,9.69588695 7.34765625,9.10116039 7.34765625,8.46834789 C7.34765625,8.15780101 7.37695312,7.8560432 7.43554688,7.56307445 C7.49414062,7.2701057 7.58203125,6.9888557 7.69921875,6.71932445 L4.27148438,3.28280101 C3.60351562,3.73397289 3.00585938,4.20711742 2.47851562,4.7022346 C1.95117188,5.19735179 1.50292969,5.68367992 1.13378906,6.16121898 C0.764648438,6.63875804 0.483398438,7.07821117 0.290039062,7.47957835 C0.0966796875,7.88094554 0,8.2076057 0,8.45955882 C0,8.75838695 0.12890625,9.15096507 0.38671875,9.6372932 C0.64453125,10.1236213 1.02099609,10.6538948 1.51611328,11.2281135 C2.01123047,11.8023323 2.61181641,12.3750862 3.31787109,12.9463752 C4.02392578,13.5176643 4.82226562,14.0420784 5.71289062,14.5196174 C6.60351562,14.9971565 7.57763672,15.3794807 8.63525391,15.6665901 C9.69287109,15.9536994 10.8193359,16.0972541 12.0146484,16.0972541 Z M19.9335938,13.5660041 C20.7832031,12.9800666 21.515625,12.3560432 22.1308594,11.6939338 C22.7460938,11.0318244 23.2192383,10.4136604 23.550293,9.83944164 C23.8813477,9.26522289 24.046875,8.80526195 24.046875,8.45955882 C24.046875,8.16659007 23.9179688,7.77694164 23.6601562,7.29061351 C23.4023438,6.80428539 23.0288086,6.27401195 22.5395508,5.6997932 C22.050293,5.12557445 21.4555664,4.55282054 20.7553711,3.98153148 C20.0551758,3.41024242 19.2583008,2.8872932 18.3647461,2.41268382 C17.4711914,1.93807445 16.4926758,1.55721507 15.4291992,1.2701057 C14.3657227,0.982996324 13.2275391,0.839441636 12.0146484,0.839441636 C11.2705078,0.839441636 10.5527344,0.898035386 9.86132812,1.01522289 C9.16992188,1.13241039 8.5078125,1.2935432 7.875,1.49862132 L10.4765625,4.10018382 C10.7167969,4.0122932 10.9672852,3.94344554 11.2280273,3.89364085 C11.4887695,3.84383617 11.7539062,3.81893382 12.0234375,3.81893382 C12.6679688,3.81893382 13.2729492,3.93758617 13.8383789,4.17489085 C14.4038086,4.41219554 14.9003906,4.74471507 15.328125,5.17244945 C15.7558594,5.60018382 16.0913086,6.09383617 16.3344727,6.65340648 C16.5776367,7.21297679 16.6992188,7.81795726 16.6992188,8.46834789 C16.6992188,8.74373851 16.6743164,9.01180492 16.6245117,9.2725471 C16.574707,9.53328929 16.5,9.78084789 16.4003906,10.0152229 L19.9335938,13.5660041 Z M9.14941406,8.40682445 C9.14941406,8.91659007 9.27539062,9.38094554 9.52734375,9.79989085 C9.77929688,10.2188362 10.1162109,10.5528205 10.5380859,10.801844 C10.9599609,11.0508674 11.4257812,11.1753791 11.9355469,11.1753791 C11.9707031,11.1753791 12.0043945,11.1753791 12.0366211,11.1753791 C12.0688477,11.1753791 12.1025391,11.1724494 12.1376953,11.1665901 L9.15820312,8.18709789 C9.15234375,8.22225414 9.14941406,8.25887523 9.14941406,8.29696117 C9.14941406,8.3350471 9.14941406,8.3716682 9.14941406,8.40682445 Z M14.8623047,8.28377757 C14.8623047,7.77401195 14.7392578,7.30965648 14.4931641,6.89071117 C14.2470703,6.47176585 13.9130859,6.13778148 13.4912109,5.88875804 C13.0693359,5.6397346 12.6035156,5.51522289 12.09375,5.51522289 C12.0585938,5.51522289 12.0249023,5.51522289 11.9926758,5.51522289 C11.9604492,5.51522289 11.9296875,5.51815257 11.9003906,5.52401195 L14.8535156,8.47713695 C14.859375,8.44784007 14.8623047,8.41707835 14.8623047,8.38485179 C14.8623047,8.35262523 14.8623047,8.31893382 14.8623047,8.28377757 Z M19.0986328,16.4751838 C19.2451172,16.6216682 19.4208984,16.6963752 19.6259766,16.6993878 C19.8310547,16.7022346 20.0039062,16.6275276 20.1445312,16.4751838 C20.296875,16.3228401 20.371582,16.1470588 20.3687353,15.9478401 C20.3657227,15.7486213 20.2910156,15.5757698 20.1445312,15.4292854 L4.93066406,0.215418199 C4.78417969,0.0747931985 4.60693359,0.00301585478 4.39892578,-2.18491891e-13 C4.19091797,-0.00284352022 4.01660156,0.0689338235 3.87597656,0.215418199 C3.73535156,0.356043199 3.66503906,0.530359605 3.66503906,0.738367417 C3.66503906,0.94637523 3.73535156,1.12069164 3.87597656,1.26131664 L19.0986328,16.4751838 Z" id="形状"></path>
            </g>
        </g>
    </g>
</svg>