<?xml version="1.0" encoding="UTF-8"?>
<svg width="19px" height="19px" viewBox="0 0 19 19" version="1.1" xmlns="http://www.w3.org/2000/svg" xmlns:xlink="http://www.w3.org/1999/xlink">
    <title>􀎥</title>
    <g id="页面-1" stroke="none" stroke-width="1" fill="none" fill-rule="evenodd" fill-opacity="0.5">
        <g id="词汇界面搜索1备份-2" transform="translate(-20.000000, -253.000000)" fill="#000000" fill-rule="nonzero">
            <g id="􀎥" transform="translate(20.674316, 253.504883)">
                <path d="M1.87207031,17.8330078 L10.6171875,17.8330078 C11.25,17.8330078 11.7202148,17.671875 12.027832,17.3496094 C12.3354492,17.0273438 12.4892578,16.5234375 12.4892578,15.8378906 L12.4892578,9.07910156 C12.4892578,8.40527344 12.3354492,7.90722656 12.027832,7.58496094 C11.7202148,7.26269531 11.25,7.1015625 10.6171875,7.1015625 L1.96875,7.11035156 C1.34765625,7.11035156 0.864257812,7.27001953 0.518554688,7.58935547 C0.172851562,7.90869141 0,8.40527344 0,9.07910156 L0,15.8378906 C0,16.5234375 0.156738281,17.0273438 0.470214844,17.3496094 C0.783691406,17.671875 1.25097656,17.8330078 1.87207031,17.8330078 Z M8.88574219,7.8046875 L10.9951172,7.8046875 L10.9951172,4.88671875 C10.9951172,4.28320312 11.1108398,3.76904297 11.3422852,3.34423828 C11.5737305,2.91943359 11.8842773,2.59570312 12.2739258,2.37304688 C12.6635742,2.15039062 13.1015625,2.0390625 13.5878906,2.0390625 C14.0683594,2.0390625 14.5048828,2.15039062 14.8974609,2.37304688 C15.2900391,2.59570312 15.6005859,2.91943359 15.8291016,3.34423828 C16.0576172,3.76904297 16.171875,4.28320312 16.171875,4.88671875 L16.171875,6.59179688 C16.171875,6.984375 16.2729492,7.28320312 16.4750977,7.48828125 C16.6772461,7.69335938 16.9306641,7.79589844 17.2353516,7.79589844 C17.5341797,7.79589844 17.784668,7.69482422 17.9868164,7.49267578 C18.1889648,7.29052734 18.2900391,6.99023438 18.2900391,6.59179688 L18.2900391,5.01855469 C18.2900391,4.17480469 18.1582031,3.43798828 17.8945312,2.80810547 C17.6308594,2.17822266 17.2763672,1.65527344 16.8310547,1.23925781 C16.3857422,0.823242188 15.8833008,0.512695312 15.3237305,0.307617188 C14.7641602,0.102539062 14.1855469,0 13.5878906,0 C12.9902344,0 12.4116211,0.102539062 11.8520508,0.307617188 C11.2924805,0.512695312 10.7885742,0.823242188 10.340332,1.23925781 C9.89208984,1.65527344 9.53759766,2.17822266 9.27685547,2.80810547 C9.01611328,3.43798828 8.88574219,4.17480469 8.88574219,5.01855469 L8.88574219,7.8046875 Z" id="形状"></path>
            </g>
        </g>
    </g>
</svg>