<?xml version="1.0" encoding="UTF-8"?>
<svg width="13px" height="19px" viewBox="0 0 13 19" version="1.1" xmlns="http://www.w3.org/2000/svg" xmlns:xlink="http://www.w3.org/1999/xlink">
    <title>􀎡备份</title>
    <g id="页面-1" stroke="none" stroke-width="1" fill="none" fill-rule="evenodd" fill-opacity="0.5">
        <g id="词汇界面搜索1备份-2" transform="translate(-23.000000, -276.000000)" fill="#000000" fill-rule="nonzero">
            <g id="􀎡备份" transform="translate(23.475098, 276.504883)">
                <path d="M1.87207031,17.8330078 L10.6171875,17.8330078 C11.25,17.8330078 11.7202148,17.671875 12.027832,17.3496094 C12.3354492,17.0273438 12.4892578,16.5234375 12.4892578,15.8378906 L12.4892578,9.07910156 C12.4892578,8.40527344 12.3354492,7.90722656 12.027832,7.58496094 C11.7202148,7.26269531 11.25,7.1015625 10.6171875,7.1015625 L1.96875,7.11035156 C1.34765625,7.11035156 0.864257812,7.27001953 0.518554688,7.58935547 C0.172851562,7.90869141 0,8.40527344 0,9.07910156 L0,15.8378906 C0,16.5234375 0.156738281,17.0273438 0.470214844,17.3496094 C0.783691406,17.671875 1.25097656,17.8330078 1.87207031,17.8330078 Z M1.546875,7.8046875 L3.65625,7.8046875 L3.65625,4.88671875 C3.65625,4.28320312 3.77197266,3.76904297 4.00341797,3.34423828 C4.23486328,2.91943359 4.546875,2.59570312 4.93945312,2.37304688 C5.33203125,2.15039062 5.76855469,2.0390625 6.24902344,2.0390625 C6.72949219,2.0390625 7.16601562,2.15039062 7.55859375,2.37304688 C7.95117188,2.59570312 8.26171875,2.91943359 8.49023438,3.34423828 C8.71875,3.76904297 8.83300781,4.28320312 8.83300781,4.88671875 L8.83300781,7.8046875 L10.9511719,7.8046875 L10.9511719,5.01855469 C10.9511719,4.17480469 10.8193359,3.43798828 10.5556641,2.80810547 C10.2919922,2.17822266 9.9375,1.65527344 9.4921875,1.23925781 C9.046875,0.823242188 8.54296875,0.512695312 7.98046875,0.307617188 C7.41796875,0.102539062 6.84082031,0 6.24902344,0 C5.65136719,0 5.07275391,0.102539062 4.51318359,0.307617188 C3.95361328,0.512695312 3.45117188,0.823242188 3.00585938,1.23925781 C2.56054688,1.65527344 2.20605469,2.17822266 1.94238281,2.80810547 C1.67871094,3.43798828 1.546875,4.17480469 1.546875,5.01855469 L1.546875,7.8046875 Z" id="形状"></path>
            </g>
        </g>
    </g>
</svg>