<?xml version="1.0" encoding="UTF-8"?>
<svg width="13px" height="16px" viewBox="0 0 13 16" version="1.1" xmlns="http://www.w3.org/2000/svg" xmlns:xlink="http://www.w3.org/1999/xlink">
    <title>􀅈</title>
    <g id="页面-1" stroke="none" stroke-width="1" fill="none" fill-rule="evenodd" fill-opacity="0.5">
        <g id="词汇界面搜索1备份-2" transform="translate(-215.000000, -255.000000)" fill="#000000" fill-rule="nonzero">
            <g id="􀅈" transform="translate(215.223633, 255.622070)">
                <path d="M0,8.90722656 C0,9.77311198 0.161783854,10.5820312 0.485351562,11.3339844 C0.808919271,12.0859375 1.25439453,12.7478841 1.82177734,13.3198242 C2.38916016,13.8917643 3.04996745,14.3383789 3.80419922,14.659668 C4.55843099,14.980957 5.36621094,15.1416016 6.22753906,15.1416016 C7.0843099,15.1416016 7.88867188,14.980957 8.640625,14.659668 C9.39257812,14.3383789 10.0545247,13.8917643 10.6264648,13.3198242 C11.1984049,12.7478841 11.6438802,12.0859375 11.9628906,11.3339844 C12.281901,10.5820312 12.4414062,9.77311198 12.4414062,8.90722656 C12.4414062,8.64290365 12.3582357,8.42643229 12.1918945,8.2578125 C12.0255534,8.08919271 11.8125,8.00488281 11.5527344,8.00488281 C11.297526,8.00488281 11.0901693,8.08919271 10.9306641,8.2578125 C10.7711589,8.42643229 10.6914062,8.64290365 10.6914062,8.90722656 C10.6914062,9.52701823 10.5751953,10.1069336 10.3427734,10.6469727 C10.1103516,11.1870117 9.79020182,11.6621094 9.38232422,12.0722656 C8.97444661,12.4824219 8.50048828,12.8025716 7.96044922,13.0327148 C7.42041016,13.2628581 6.84277344,13.3779297 6.22753906,13.3779297 C5.6077474,13.3779297 5.02783203,13.2628581 4.48779297,13.0327148 C3.94775391,12.8025716 3.47379557,12.4824219 3.06591797,12.0722656 C2.65804036,11.6621094 2.33902995,11.1870117 2.10888672,10.6469727 C1.87874349,10.1069336 1.76367188,9.52701823 1.76367188,8.90722656 C1.76367188,8.27832031 1.87646484,7.69156901 2.10205078,7.14697266 C2.32763672,6.6023763 2.64095052,6.125 3.04199219,5.71484375 C3.44303385,5.3046875 3.91015625,4.98453776 4.44335938,4.75439453 C4.9765625,4.5242513 5.55078125,4.40917969 6.16601562,4.40917969 C6.32552083,4.40917969 6.47932943,4.41601562 6.62744141,4.4296875 C6.77555339,4.44335938 6.91341146,4.46158854 7.04101562,4.484375 L5.50292969,6.00195312 C5.43001302,6.07942708 5.37076823,6.16373698 5.32519531,6.25488281 C5.2796224,6.34602865 5.25683594,6.453125 5.25683594,6.57617188 C5.25683594,6.81315104 5.34000651,7.0148112 5.50634766,7.18115234 C5.6726888,7.34749349 5.87434896,7.43066406 6.11132812,7.43066406 C6.35286458,7.43066406 6.55110677,7.35091146 6.70605469,7.19140625 L9.49511719,4.36816406 C9.58626302,4.27701823 9.6546224,4.17789714 9.70019531,4.07080078 C9.74576823,3.96370443 9.76855469,3.84863281 9.76855469,3.72558594 C9.76855469,3.48404948 9.67740885,3.27213542 9.49511719,3.08984375 L6.70605469,0.252929688 C6.54654948,0.0843098958 6.34830729,0 6.11132812,0 C5.87434896,0 5.6726888,0.0843098958 5.50634766,0.252929688 C5.34000651,0.421549479 5.25683594,0.62890625 5.25683594,0.875 C5.25683594,0.993489583 5.27848307,1.09830729 5.32177734,1.18945312 C5.36507161,1.28059896 5.42317708,1.36490885 5.49609375,1.44238281 L6.85644531,2.78222656 C6.7516276,2.7639974 6.64111328,2.7491862 6.52490234,2.73779297 C6.40869141,2.72639974 6.2890625,2.72070312 6.16601562,2.72070312 C5.30924479,2.72070312 4.50716146,2.88020833 3.75976562,3.19921875 C3.01236979,3.51822917 2.35725911,3.95914714 1.79443359,4.52197266 C1.23160807,5.08479818 0.791829427,5.74104818 0.475097656,6.49072266 C0.158365885,7.24039714 0,8.04589844 0,8.90722656 Z" id="路径"></path>
            </g>
        </g>
    </g>
</svg>